# xmcd
#
# Track frame offsets: 
#        150
#        16364
#        50627
#        76353
#        105677
#        128589
#        160053
#        180912
#        197338
#
# Disc length: 2904 seconds
#
# Revision: 2
# Processed by: cddbd v1.5.2PL0 Copyright (c) Steve Scherf et al.
# Submitted via: ExactAudioCopy v0.99pb5
#
DISCID=630b5609
DTITLE=Anders Aarum Trio - First Communion
DYEAR=2006
DGENRE=Jazz
TTITLE0=Peculiar Ways Of Blending In
TTITLE1=Partisan Of Unhealthy Pleasures
TTITLE2=Uncle Who?
TTITLE3=Hymn For Granny
TTITLE4=Why Be Scared Of A Hat?
TTITLE5=First Communion
TTITLE6=The Importance Of Wearing A Uniform
TTITLE7=Let's Put Fun Back In Fundamentalism
TTITLE8=And Then She Left...
EXTD=
EXTT0=
EXTT1=
EXTT2=
EXTT3=
EXTT4=
EXTT5=
EXTT6=
EXTT7=
EXTT8=
PLAYORDER=
